<!-- 添加新的svg：1、svg改为symbol；2、添加id；3、去掉width、height -->
<svg style="display:none;" xmlns="http://www.w3.org/2000/svg">
  <symbol id="nreal-search" viewBox="0 0 32 32" fill="none" xmlns="http://www.w3.org/2000/svg">
    <path fill-rule="evenodd" clip-rule="evenodd" d="M14.6668 22.6667C19.0851 22.6667 22.6668 19.085 22.6668 14.6667C22.6668 10.2484 19.0851 6.66669 14.6668 6.66669C10.2485 6.66669 6.66675 10.2484 6.66675 14.6667C6.66675 19.085 10.2485 22.6667 14.6668 22.6667ZM14.6668 26.6667C21.2942 26.6667 26.6668 21.2941 26.6668 14.6667C26.6668 8.03927 21.2942 2.66669 14.6668 2.66669C8.03933 2.66669 2.66675 8.03927 2.66675 14.6667C2.66675 21.2941 8.03933 26.6667 14.6668 26.6667Z" fill="#111111"/>
    <path d="M21.4142 24.2427C20.6332 23.4616 20.6332 22.1953 21.4142 21.4143C22.1953 20.6332 23.4616 20.6332 24.2427 21.4143L28.9567 26.1283C29.7378 26.9094 29.7378 28.1757 28.9567 28.9567C28.1757 29.7378 26.9093 29.7378 26.1283 28.9567L21.4142 24.2427Z" fill="#111111"/>
  </symbol>
  <symbol id="nreal-bars" viewBox="0 0 32 32" fill="none" xmlns="http://www.w3.org/2000/svg">
    <path d="M5.33325 7.33331C5.33325 6.22874 6.22868 5.33331 7.33325 5.33331H24.6665C25.7711 5.33331 26.6665 6.22874 26.6665 7.33331C26.6665 8.43788 25.7711 9.33331 24.6665 9.33331H7.33325C6.22868 9.33331 5.33325 8.43788 5.33325 7.33331Z" fill="#111111"/>
    <path d="M5.33325 15.3333C5.33325 14.2287 6.22868 13.3333 7.33325 13.3333H24.6665C25.7711 13.3333 26.6665 14.2287 26.6665 15.3333C26.6665 16.4379 25.7711 17.3333 24.6665 17.3333H7.33325C6.22868 17.3333 5.33325 16.4379 5.33325 15.3333Z" fill="#111111"/>
    <path d="M5.33325 23.3333C5.33325 22.2287 6.22868 21.3333 7.33325 21.3333H24.6665C25.7711 21.3333 26.6665 22.2287 26.6665 23.3333C26.6665 24.4379 25.7711 25.3333 24.6665 25.3333H7.33325C6.22868 25.3333 5.33325 24.4379 5.33325 23.3333Z" fill="#111111"/>
  </symbol>
  <symbol id="nreal-caret-down" viewBox="0 0 16 16" fill="none" xmlns="http://www.w3.org/2000/svg">
    <path d="M7.99995 9.15636L3.1289 4.28531C2.95316 4.10957 2.66824 4.10957 2.4925 4.28531L1.78531 4.9925C1.60957 5.16824 1.60957 5.45316 1.78531 5.6289L7.50498 11.3486C7.77835 11.6219 8.22156 11.6219 8.49493 11.3486L14.2146 5.6289C14.3903 5.45316 14.3903 5.16824 14.2146 4.9925L13.5074 4.28531C13.3317 4.10957 13.0468 4.10957 12.871 4.28531L7.99995 9.15636Z" fill="#111111" stroke="#111111" stroke-width="0.4"/>
  </symbol>
  <symbol id="nreal-caret-right" viewBox="0 0 16 16" fill="none" xmlns="http://www.w3.org/2000/svg">
    <path d="M9.15635 8.00001L4.2853 12.8711C4.10957 13.0468 4.10957 13.3317 4.2853 13.5075L4.9925 14.2147C5.16824 14.3904 5.45316 14.3904 5.6289 14.2147L11.3486 8.49498C11.622 8.22161 11.622 7.7784 11.3486 7.50503L5.6289 1.78536C5.45316 1.60963 5.16824 1.60963 4.9925 1.78536L4.2853 2.49256C4.10957 2.66829 4.10957 2.95322 4.2853 3.12895L9.15635 8.00001Z" fill="#111111" stroke="#111111" stroke-width="0.4"/>
  </symbol>
  <symbol id="nreal-caret-up" viewBox="0 0 16 16" fill="none" xmlns="http://www.w3.org/2000/svg">
    <path d="M8.00001 6.84365L12.8711 11.7147C13.0468 11.8904 13.3317 11.8904 13.5075 11.7147L14.2147 11.0075C14.3904 10.8317 14.3904 10.5468 14.2147 10.3711L8.49498 4.65144C8.22161 4.37807 7.7784 4.37807 7.50503 4.65144L1.78536 10.3711C1.60963 10.5468 1.60963 10.8317 1.78536 11.0075L2.49256 11.7147C2.66829 11.8904 2.95322 11.8904 3.12895 11.7147L8.00001 6.84365Z" fill="#111111" stroke="#111111" stroke-width="0.4"/>
  </symbol>
  <symbol id="nreal-muted" viewBox="0 0 24 24" fill="none" xmlns="http://www.w3.org/2000/svg">
    <path d="M12 17.5C15.0376 17.5 17.5 15.0376 17.5 12C17.5 8.96243 15.0376 6.5 12 6.5C8.96243 6.5 6.5 8.96243 6.5 12C6.5 15.0376 8.96243 17.5 12 17.5Z" stroke="#A0A0A0" stroke-width="3"/>
  </symbol>
  <symbol id="nreal-plus" viewBox="0 0 16 16" fill="none" xmlns="http://www.w3.org/2000/svg">
    <path d="M2 7.59999C2 7.15816 2.35817 6.79999 2.8 6.79999H13.2C13.6418 6.79999 14 7.15816 14 7.59999V8.39999C14 8.84182 13.6418 9.19999 13.2 9.19999H2.8C2.35817 9.19999 2 8.84182 2 8.39999V7.59999Z" fill="#111111"/>
    <path d="M7.59999 14C7.15816 14 6.79999 13.6418 6.79999 13.2V2.8C6.79999 2.35817 7.15816 2 7.59999 2H8.39999C8.84182 2 9.19999 2.35817 9.19999 2.8V13.2C9.19999 13.6418 8.84182 14 8.39999 14H7.59999Z" fill="#111111"/>
  </symbol>
  <symbol id="nreal-regular" viewBox="0 0 24 24" fill="none" xmlns="http://www.w3.org/2000/svg">
    <path d="M12 17.5C15.0376 17.5 17.5 15.0376 17.5 12C17.5 8.96243 15.0376 6.5 12 6.5C8.96243 6.5 6.5 8.96243 6.5 12C6.5 15.0376 8.96243 17.5 12 17.5Z" stroke="#46D3EC" stroke-width="3"/>
  </symbol>
  <symbol id="nreal-reply" viewBox="0 0 24 24" fill="none" xmlns="http://www.w3.org/2000/svg">
    <path fill-rule="evenodd" clip-rule="evenodd" d="M10.4138 15.1L11.9981 16.9369L13.5809 15.1H20.1988V5.5H3.79883V15.1H10.4138ZM11.9988 20L9.49766 17.1H3.79883C2.69426 17.1 1.79883 16.2046 1.79883 15.1V5.5C1.79883 4.39543 2.69426 3.5 3.79883 3.5H20.1988C21.3034 3.5 22.1988 4.39543 22.1988 5.5V15.1C22.1988 16.2046 21.3034 17.1 20.1988 17.1H14.4977L11.9988 20Z" fill="#111111"/>
    <path d="M8.5 11.8C9.32843 11.8 10 11.1284 10 10.3C10 9.47156 9.32843 8.79999 8.5 8.79999C7.67157 8.79999 7 9.47156 7 10.3C7 11.1284 7.67157 11.8 8.5 11.8Z" fill="#111111"/>
    <path d="M15.5 11.8C16.3284 11.8 17 11.1284 17 10.3C17 9.47156 16.3284 8.79999 15.5 8.79999C14.6716 8.79999 14 9.47156 14 10.3C14 11.1284 14.6716 11.8 15.5 11.8Z" fill="#111111"/>
  </symbol>
  <symbol id="nreal-tracking" viewBox="0 0 24 24" fill="none" xmlns="http://www.w3.org/2000/svg">
    <path d="M12 17.5C15.0376 17.5 17.5 15.0376 17.5 12C17.5 8.96243 15.0376 6.5 12 6.5C8.96243 6.5 6.5 8.96243 6.5 12C6.5 15.0376 8.96243 17.5 12 17.5Z" stroke="#00D998" stroke-width="3"/>
  </symbol>
  <symbol id="nreal-watching" viewBox="0 0 24 24" fill="none" xmlns="http://www.w3.org/2000/svg">
    <path d="M12 17.5C15.0376 17.5 17.5 15.0376 17.5 12C17.5 8.96243 15.0376 6.5 12 6.5C8.96243 6.5 6.5 8.96243 6.5 12C6.5 15.0376 8.96243 17.5 12 17.5Z" stroke="#FF8A00" stroke-width="3"/>
  </symbol>
  <symbol id="nreal-haha" viewBox="0 0 24 24" fill="none" xmlns="http://www.w3.org/2000/svg">
    <g clip-path="url(#clip0_432_5864)">
    <path d="M12 22C6.477 22 2 17.523 2 12C2 6.477 6.477 2 12 2C17.523 2 22 6.477 22 12C22 17.523 17.523 22 12 22ZM12 20C14.1217 20 16.1566 19.1571 17.6569 17.6569C19.1571 16.1566 20 14.1217 20 12C20 9.87827 19.1571 7.84344 17.6569 6.34315C16.1566 4.84285 14.1217 4 12 4C9.87827 4 7.84344 4.84285 6.34315 6.34315C4.84285 7.84344 4 9.87827 4 12C4 14.1217 4.84285 16.1566 6.34315 17.6569C7.84344 19.1571 9.87827 20 12 20V20ZM8 13H16C16 14.0609 15.5786 15.0783 14.8284 15.8284C14.0783 16.5786 13.0609 17 12 17C10.9391 17 9.92172 16.5786 9.17157 15.8284C8.42143 15.0783 8 14.0609 8 13V13ZM8 11C7.60218 11 7.22064 10.842 6.93934 10.5607C6.65804 10.2794 6.5 9.89782 6.5 9.5C6.5 9.10218 6.65804 8.72064 6.93934 8.43934C7.22064 8.15804 7.60218 8 8 8C8.39782 8 8.77936 8.15804 9.06066 8.43934C9.34196 8.72064 9.5 9.10218 9.5 9.5C9.5 9.89782 9.34196 10.2794 9.06066 10.5607C8.77936 10.842 8.39782 11 8 11ZM16 11C15.6022 11 15.2206 10.842 14.9393 10.5607C14.658 10.2794 14.5 9.89782 14.5 9.5C14.5 9.10218 14.658 8.72064 14.9393 8.43934C15.2206 8.15804 15.6022 8 16 8C16.3978 8 16.7794 8.15804 17.0607 8.43934C17.342 8.72064 17.5 9.10218 17.5 9.5C17.5 9.89782 17.342 10.2794 17.0607 10.5607C16.7794 10.842 16.3978 11 16 11Z" fill="black"/>
    </g>
    <defs>
    <clipPath id="clip0_432_5864">
    <rect width="24" height="24"/>
    </clipPath>
    </defs>
  </symbol>
</svg>