<svg style="display:none;" xmlns="http://www.w3.org/2000/svg">
  <symbol id="nreal-search" width="32" height="32" viewBox="0 0 32 32" fill="none" xmlns="http://www.w3.org/2000/svg">
    <g clip-path="url(#clip0_363_4153)">
    <path fill-rule="evenodd" clip-rule="evenodd" d="M14.667 22.6667C19.0853 22.6667 22.667 19.085 22.667 14.6667C22.667 10.2484 19.0853 6.66669 14.667 6.66669C10.2487 6.66669 6.66699 10.2484 6.66699 14.6667C6.66699 19.085 10.2487 22.6667 14.667 22.6667ZM14.667 26.6667C21.2944 26.6667 26.667 21.2941 26.667 14.6667C26.667 8.03927 21.2944 2.66669 14.667 2.66669C8.03958 2.66669 2.66699 8.03927 2.66699 14.6667C2.66699 21.2941 8.03958 26.6667 14.667 26.6667Z" fill="#111111"/>
    <path d="M21.4145 24.2427C20.6335 23.4616 20.6335 22.1953 21.4145 21.4143C22.1956 20.6332 23.4619 20.6332 24.243 21.4143L28.957 26.1283C29.7381 26.9094 29.7381 28.1757 28.957 28.9567C28.176 29.7378 26.9096 29.7378 26.1286 28.9567L21.4145 24.2427Z" fill="#111111"/>
    </g>
    <defs>
    <clipPath id="clip0_363_4153">
    <rect width="32" height="32" fill="white"/>
    </clipPath>
    </defs>
  </symbol>
  <symbol id="nreal-more" width="32" height="32" viewBox="0 0 32 32" fill="none" xmlns="http://www.w3.org/2000/svg">
    <g clip-path="url(#clip0_363_4156)">
    <path d="M5.33301 7.33331C5.33301 6.22874 6.22844 5.33331 7.33301 5.33331H24.6663C25.7709 5.33331 26.6663 6.22874 26.6663 7.33331C26.6663 8.43788 25.7709 9.33331 24.6663 9.33331H7.33301C6.22844 9.33331 5.33301 8.43788 5.33301 7.33331Z" fill="#111111"/>
    <path d="M5.33301 15.3333C5.33301 14.2287 6.22844 13.3333 7.33301 13.3333H24.6663C25.7709 13.3333 26.6663 14.2287 26.6663 15.3333C26.6663 16.4379 25.7709 17.3333 24.6663 17.3333H7.33301C6.22844 17.3333 5.33301 16.4379 5.33301 15.3333Z" fill="#111111"/>
    <path d="M5.33301 23.3333C5.33301 22.2287 6.22844 21.3333 7.33301 21.3333H24.6663C25.7709 21.3333 26.6663 22.2287 26.6663 23.3333C26.6663 24.4379 25.7709 25.3333 24.6663 25.3333H7.33301C6.22844 25.3333 5.33301 24.4379 5.33301 23.3333Z" fill="#111111"/>
    </g>
    <defs>
    <clipPath id="clip0_363_4156">
    <rect width="32" height="32" fill="white"/>
    </clipPath>
    </defs>
  </symbol>
  <symbol id="nreal-caret-right" width="16" height="16" viewBox="0 0 16 16" fill="none" xmlns="http://www.w3.org/2000/svg">
    <g clip-path="url(#clip0_363_4071)">
    <path d="M9.15637 8.00004L4.28532 12.8711C4.10958 13.0468 4.10958 13.3317 4.28532 13.5075L4.99251 14.2147C5.16825 14.3904 5.45317 14.3904 5.62891 14.2147L11.3486 8.49501C11.6219 8.22164 11.6219 7.77843 11.3486 7.50506L5.62891 1.78539C5.45317 1.60966 5.16825 1.60966 4.99251 1.78539L4.28532 2.49259C4.10958 2.66832 4.10958 2.95325 4.28532 3.12898L9.15637 8.00004Z" fill="black" stroke="black" stroke-width="0.4"/>
    </g>
    <defs>
    <clipPath id="clip0_363_4071">
    <rect width="16" height="16" fill="white" transform="translate(0 16) rotate(-90)"/>
    </clipPath>
    </defs>
  </symbol>
  <symbol id="nreal-caret-down" width="20" height="20" viewBox="0 0 20 20" fill="none" xmlns="http://www.w3.org/2000/svg">
    <g clip-path="url(#clip0_363_2156)">
    <path d="M9.99946 11.5162L3.87529 5.392C3.67515 5.19186 3.35065 5.19186 3.15051 5.392L2.26651 6.276C2.06637 6.47614 2.06637 6.80064 2.26651 7.00078L9.4161 14.1504C9.73828 14.4726 10.2606 14.4726 10.5828 14.1504L17.7324 7.00078C17.9326 6.80064 17.9326 6.47614 17.7324 6.276L16.8484 5.392C16.6483 5.19186 16.3238 5.19186 16.1236 5.392L9.99946 11.5162Z" fill="black" stroke="black" stroke-width="0.4"/>
    </g>
    <defs>
    <clipPath id="clip0_363_2156">
    <rect width="20" height="20" fill="white"/>
    </clipPath>
    </defs>
  </symbol>
</svg>