<!-- 添加新的svg：1、svg改为symbol；2、添加id；3、去掉width、height -->
<svg style="display:none;" xmlns="http://www.w3.org/2000/svg">
  <symbol id="nreal-search" viewBox="0 0 32 32" fill="none" xmlns="http://www.w3.org/2000/svg">
    <path fill-rule="evenodd" clip-rule="evenodd" d="M14.6668 22.6667C19.0851 22.6667 22.6668 19.085 22.6668 14.6667C22.6668 10.2484 19.0851 6.66669 14.6668 6.66669C10.2485 6.66669 6.66675 10.2484 6.66675 14.6667C6.66675 19.085 10.2485 22.6667 14.6668 22.6667ZM14.6668 26.6667C21.2942 26.6667 26.6668 21.2941 26.6668 14.6667C26.6668 8.03927 21.2942 2.66669 14.6668 2.66669C8.03933 2.66669 2.66675 8.03927 2.66675 14.6667C2.66675 21.2941 8.03933 26.6667 14.6668 26.6667Z" fill="#111111"/>
    <path d="M21.4142 24.2427C20.6332 23.4616 20.6332 22.1953 21.4142 21.4143C22.1953 20.6332 23.4616 20.6332 24.2427 21.4143L28.9567 26.1283C29.7378 26.9094 29.7378 28.1757 28.9567 28.9567C28.1757 29.7378 26.9093 29.7378 26.1283 28.9567L21.4142 24.2427Z" fill="#111111"/>
  </symbol>
  <symbol id="nreal-bars" viewBox="0 0 32 32" fill="none" xmlns="http://www.w3.org/2000/svg">
    <path d="M5.33325 7.33331C5.33325 6.22874 6.22868 5.33331 7.33325 5.33331H24.6665C25.7711 5.33331 26.6665 6.22874 26.6665 7.33331C26.6665 8.43788 25.7711 9.33331 24.6665 9.33331H7.33325C6.22868 9.33331 5.33325 8.43788 5.33325 7.33331Z" fill="#111111"/>
    <path d="M5.33325 15.3333C5.33325 14.2287 6.22868 13.3333 7.33325 13.3333H24.6665C25.7711 13.3333 26.6665 14.2287 26.6665 15.3333C26.6665 16.4379 25.7711 17.3333 24.6665 17.3333H7.33325C6.22868 17.3333 5.33325 16.4379 5.33325 15.3333Z" fill="#111111"/>
    <path d="M5.33325 23.3333C5.33325 22.2287 6.22868 21.3333 7.33325 21.3333H24.6665C25.7711 21.3333 26.6665 22.2287 26.6665 23.3333C26.6665 24.4379 25.7711 25.3333 24.6665 25.3333H7.33325C6.22868 25.3333 5.33325 24.4379 5.33325 23.3333Z" fill="#111111"/>
  </symbol>
  <symbol id="nreal-caret-down" viewBox="0 0 16 16" fill="none" xmlns="http://www.w3.org/2000/svg">
    <path d="M7.99995 9.15636L3.1289 4.28531C2.95316 4.10957 2.66824 4.10957 2.4925 4.28531L1.78531 4.9925C1.60957 5.16824 1.60957 5.45316 1.78531 5.6289L7.50498 11.3486C7.77835 11.6219 8.22156 11.6219 8.49493 11.3486L14.2146 5.6289C14.3903 5.45316 14.3903 5.16824 14.2146 4.9925L13.5074 4.28531C13.3317 4.10957 13.0468 4.10957 12.871 4.28531L7.99995 9.15636Z" fill="#111111" stroke="#111111" stroke-width="0.4"/>
  </symbol>
  <symbol id="nreal-caret-right" viewBox="0 0 16 16" fill="none" xmlns="http://www.w3.org/2000/svg">
    <path d="M9.15635 8.00001L4.2853 12.8711C4.10957 13.0468 4.10957 13.3317 4.2853 13.5075L4.9925 14.2147C5.16824 14.3904 5.45316 14.3904 5.6289 14.2147L11.3486 8.49498C11.622 8.22161 11.622 7.7784 11.3486 7.50503L5.6289 1.78536C5.45316 1.60963 5.16824 1.60963 4.9925 1.78536L4.2853 2.49256C4.10957 2.66829 4.10957 2.95322 4.2853 3.12895L9.15635 8.00001Z" fill="#111111" stroke="#111111" stroke-width="0.4"/>
  </symbol>
  <symbol id="nreal-caret-up" viewBox="0 0 16 16" fill="none" xmlns="http://www.w3.org/2000/svg">
    <path d="M8.00001 6.84365L12.8711 11.7147C13.0468 11.8904 13.3317 11.8904 13.5075 11.7147L14.2147 11.0075C14.3904 10.8317 14.3904 10.5468 14.2147 10.3711L8.49498 4.65144C8.22161 4.37807 7.7784 4.37807 7.50503 4.65144L1.78536 10.3711C1.60963 10.5468 1.60963 10.8317 1.78536 11.0075L2.49256 11.7147C2.66829 11.8904 2.95322 11.8904 3.12895 11.7147L8.00001 6.84365Z" fill="#111111" stroke="#111111" stroke-width="0.4"/>
  </symbol>
  <symbol id="nreal-plus" viewBox="0 0 16 16" fill="none" xmlns="http://www.w3.org/2000/svg">
    <path d="M2 7.59999C2 7.15816 2.35817 6.79999 2.8 6.79999H13.2C13.6418 6.79999 14 7.15816 14 7.59999V8.39999C14 8.84182 13.6418 9.19999 13.2 9.19999H2.8C2.35817 9.19999 2 8.84182 2 8.39999V7.59999Z" fill="#111111"/>
    <path d="M7.59999 14C7.15816 14 6.79999 13.6418 6.79999 13.2V2.8C6.79999 2.35817 7.15816 2 7.59999 2H8.39999C8.84182 2 9.19999 2.35817 9.19999 2.8V13.2C9.19999 13.6418 8.84182 14 8.39999 14H7.59999Z" fill="#111111"/>
  </symbol>
  <symbol id="nreal-reply" viewBox="0 0 24 24" fill="none" xmlns="http://www.w3.org/2000/svg">
    <path fill-rule="evenodd" clip-rule="evenodd" d="M10.2907 15.6545L11.9992 17.6584L13.7062 15.6545H20.8431V5.18182H3.15687V15.6545H10.2907ZM12 21L9.30267 17.8364H3.15687C1.96566 17.8364 1 16.8596 1 15.6545V5.18182C1 3.97683 1.96566 3 3.15687 3H20.8431C22.0344 3 23 3.97683 23 5.18182V15.6545C23 16.8596 22.0344 17.8364 20.8431 17.8364H14.6949L12 21Z" fill="white"/>
    <path d="M8.22676 12.0545C9.12017 12.0545 9.84441 11.3219 9.84441 10.4182C9.84441 9.51444 9.12017 8.78182 8.22676 8.78182C7.33336 8.78182 6.60911 9.51444 6.60911 10.4182C6.60911 11.3219 7.33336 12.0545 8.22676 12.0545Z" fill="white"/>
    <path d="M15.7758 12.0545C16.6692 12.0545 17.3934 11.3219 17.3934 10.4182C17.3934 9.51444 16.6692 8.78182 15.7758 8.78182C14.8824 8.78182 14.1581 9.51444 14.1581 10.4182C14.1581 11.3219 14.8824 12.0545 15.7758 12.0545Z" fill="white"/>
  </symbol>
  <symbol id="nreal-muted" viewBox="0 0 24 24" fill="none" xmlns="http://www.w3.org/2000/svg">
    <path d="M12 19C15.866 19 19 15.866 19 12C19 8.13401 15.866 5 12 5C8.13401 5 5 8.13401 5 12C5 15.866 8.13401 19 12 19Z" stroke="#A0A0A0" stroke-width="3"/>
  </symbol>
  <symbol id="nreal-regular" viewBox="0 0 24 24" fill="none" xmlns="http://www.w3.org/2000/svg">
    <path d="M12 19C15.866 19 19 15.866 19 12C19 8.13401 15.866 5 12 5C8.13401 5 5 8.13401 5 12C5 15.866 8.13401 19 12 19Z" stroke="#46D3EC" stroke-width="3"/>
  </symbol>
  <symbol id="nreal-tracking" viewBox="0 0 24 24" fill="none" xmlns="http://www.w3.org/2000/svg">
    <path d="M12 19C15.866 19 19 15.866 19 12C19 8.13401 15.866 5 12 5C8.13401 5 5 8.13401 5 12C5 15.866 8.13401 19 12 19Z" stroke="#00D998" stroke-width="3"/>
  </symbol>
  <symbol id="nreal-watching" viewBox="0 0 24 24" fill="none" xmlns="http://www.w3.org/2000/svg">
    <path d="M12 19C15.866 19 19 15.866 19 12C19 8.13401 15.866 5 12 5C8.13401 5 5 8.13401 5 12C5 15.866 8.13401 19 12 19Z" stroke="#FF8A00" stroke-width="3"/>
  </symbol>
  <!-- <symbol id="nreal-haha" xmlns="http://www.w3.org/2000/svg" viewBox="0 0 1792 1792">
    <path d="M896 960v448q0 26-19 45t-45 19-45-19l-144-144-332 332q-10 10-23 10t-23-10l-114-114q-10-10-10-23t10-23l332-332-144-144q-19-19-19-45t19-45 45-19h448q26 0 45 19t19 45zm755-672q0 13-10 23l-332 332 144 144q19 19 19 45t-19 45-45 19h-448q-26 0-45-19t-19-45v-448q0-26 19-45t45-19 45 19l144 144 332-332q10-10 23-10t23 10l114 114q10 10 10 23z"/>
  </symbol> -->
</svg>